<?xml version="1.0" encoding="UTF-8" standalone="no"?>
<!DOCTYPE svg PUBLIC "-//W3C//DTD SVG 1.1//EN"
 "http://www.w3.org/Graphics/SVG/1.1/DTD/svg11.dtd">
<!-- Generated by graphviz version 2.43.0 (0)
 -->
<!-- Title: StateMachine Pages: 1 -->
<svg width="958pt" height="307pt"
 viewBox="0.00 0.00 957.64 307.00" xmlns="http://www.w3.org/2000/svg" xmlns:xlink="http://www.w3.org/1999/xlink">
<g id="graph0" class="graph" transform="scale(1 1) rotate(0) translate(4 303)">
<title>StateMachine</title>
<polygon fill="white" stroke="transparent" points="-4,4 -4,-303 953.64,-303 953.64,4 -4,4"/>
<!-- fetch -->
<g id="node1" class="node">
<title>fetch</title>
<ellipse fill="none" stroke="black" cx="43.55" cy="-223" rx="33.6" ry="18"/>
<text text-anchor="middle" x="43.55" y="-219.3" font-family="Times-Roman" font-size="14.00">fetch</text>
</g>
<!-- decode -->
<g id="node2" class="node">
<title>decode</title>
<ellipse fill="none" stroke="black" cx="43.55" cy="-151" rx="43.59" ry="18"/>
<text text-anchor="middle" x="43.55" y="-147.3" font-family="Times-Roman" font-size="14.00">decode</text>
</g>
<!-- fetch&#45;&gt;decode -->
<g id="edge1" class="edge">
<title>fetch&#45;&gt;decode</title>
<path fill="none" stroke="black" d="M43.55,-204.86C43.55,-196.27 43.55,-187.68 43.55,-179.09"/>
<polygon fill="black" stroke="black" points="47.05,-179 43.55,-169 40.05,-179 47.05,-179"/>
</g>
<!-- calc_addr -->
<g id="node3" class="node">
<title>calc_addr</title>
<ellipse fill="none" stroke="black" cx="266.23" cy="-269" rx="53.89" ry="18"/>
<text text-anchor="middle" x="266.23" y="-265.3" font-family="Times-Roman" font-size="14.00">calc_addr</text>
</g>
<!-- decode&#45;&gt;calc_addr -->
<g id="edge2" class="edge">
<title>decode&#45;&gt;calc_addr</title>
<path fill="none" stroke="black" d="M62.62,-167.33C70.82,-175.39 80.2,-185.61 87.09,-196 98.09,-212.59 89.58,-224.53 105.09,-237 132.11,-258.72 169.85,-266.99 201.91,-269.71"/>
<polygon fill="black" stroke="black" points="201.88,-273.21 212.09,-270.4 202.36,-266.23 201.88,-273.21"/>
<text text-anchor="middle" x="134.09" y="-265.8" font-family="Times-Roman" font-size="14.00">mem rel</text>
</g>
<!-- alu_op -->
<g id="node5" class="node">
<title>alu_op</title>
<ellipse fill="none" stroke="black" cx="752.76" cy="-227" rx="40.09" ry="18"/>
<text text-anchor="middle" x="752.76" y="-223.3" font-family="Times-Roman" font-size="14.00">alu_op</text>
</g>
<!-- decode&#45;&gt;alu_op -->
<g id="edge11" class="edge">
<title>decode&#45;&gt;alu_op</title>
<path fill="none" stroke="black" d="M69.3,-165.64C80.05,-171.59 92.94,-178.17 105.09,-183 137.66,-195.93 146.47,-198.59 181.09,-204 371.98,-233.81 602.9,-231.57 702.31,-228.79"/>
<polygon fill="black" stroke="black" points="702.47,-232.29 712.37,-228.5 702.27,-225.29 702.47,-232.29"/>
<text text-anchor="middle" x="409.38" y="-230.8" font-family="Times-Roman" font-size="14.00">alu_reg_reg</text>
</g>
<!-- calc_jump_dest -->
<g id="node6" class="node">
<title>calc_jump_dest</title>
<ellipse fill="none" stroke="black" cx="266.23" cy="-177" rx="79.09" ry="18"/>
<text text-anchor="middle" x="266.23" y="-173.3" font-family="Times-Roman" font-size="14.00">calc_jump_dest</text>
</g>
<!-- decode&#45;&gt;calc_jump_dest -->
<g id="edge5" class="edge">
<title>decode&#45;&gt;calc_jump_dest</title>
<path fill="none" stroke="black" d="M85.54,-155.83C113.44,-159.12 151.29,-163.58 185.06,-167.55"/>
<polygon fill="black" stroke="black" points="185.05,-171.08 195.39,-168.77 185.87,-164.13 185.05,-171.08"/>
<text text-anchor="middle" x="134.09" y="-167.8" font-family="Times-Roman" font-size="14.00">jump rel</text>
</g>
<!-- write_pc -->
<g id="node7" class="node">
<title>write_pc</title>
<ellipse fill="none" stroke="black" cx="556.42" cy="-145" rx="48.19" ry="18"/>
<text text-anchor="middle" x="556.42" y="-141.3" font-family="Times-Roman" font-size="14.00">write_pc</text>
</g>
<!-- decode&#45;&gt;write_pc -->
<g id="edge6" class="edge">
<title>decode&#45;&gt;write_pc</title>
<path fill="none" stroke="black" d="M84.77,-145.04C111.91,-141.32 148.57,-136.9 181.09,-135 293.67,-128.43 425.56,-135.35 498.89,-140.5"/>
<polygon fill="black" stroke="black" points="499.05,-144.02 509.28,-141.25 499.55,-137.04 499.05,-144.02"/>
<text text-anchor="middle" x="266.23" y="-138.8" font-family="Times-Roman" font-size="14.00">jump reg</text>
</g>
<!-- swap_load_temp -->
<g id="node8" class="node">
<title>swap_load_temp</title>
<ellipse fill="none" stroke="black" cx="266.23" cy="-72" rx="85.29" ry="18"/>
<text text-anchor="middle" x="266.23" y="-68.3" font-family="Times-Roman" font-size="14.00">swap_load_temp</text>
</g>
<!-- decode&#45;&gt;swap_load_temp -->
<g id="edge7" class="edge">
<title>decode&#45;&gt;swap_load_temp</title>
<path fill="none" stroke="black" d="M58.64,-134.01C69.89,-121.67 86.76,-105.67 105.09,-97 125.92,-87.15 149.81,-81.05 172.67,-77.3"/>
<polygon fill="black" stroke="black" points="173.37,-80.73 182.74,-75.78 172.33,-73.81 173.37,-80.73"/>
<text text-anchor="middle" x="134.09" y="-100.8" font-family="Times-Roman" font-size="14.00">swap</text>
</g>
<!-- store -->
<g id="node11" class="node">
<title>store</title>
<ellipse fill="none" stroke="black" cx="266.23" cy="-18" rx="33.29" ry="18"/>
<text text-anchor="middle" x="266.23" y="-14.3" font-family="Times-Roman" font-size="14.00">store</text>
</g>
<!-- decode&#45;&gt;store -->
<g id="edge12" class="edge">
<title>decode&#45;&gt;store</title>
<path fill="none" stroke="black" d="M51.73,-133.07C60.97,-112.33 78.99,-78.64 105.09,-60 139.96,-35.1 188.53,-24.96 223.01,-20.83"/>
<polygon fill="black" stroke="black" points="223.66,-24.28 233.23,-19.73 222.91,-17.32 223.66,-24.28"/>
<text text-anchor="middle" x="134.09" y="-63.8" font-family="Times-Roman" font-size="14.00">store</text>
</g>
<!-- load_data -->
<g id="node4" class="node">
<title>load_data</title>
<ellipse fill="none" stroke="black" cx="556.42" cy="-269" rx="53.89" ry="18"/>
<text text-anchor="middle" x="556.42" y="-265.3" font-family="Times-Roman" font-size="14.00">load_data</text>
</g>
<!-- calc_addr&#45;&gt;load_data -->
<g id="edge3" class="edge">
<title>calc_addr&#45;&gt;load_data</title>
<path fill="none" stroke="black" d="M320.43,-269C368.91,-269 440.61,-269 492.04,-269"/>
<polygon fill="black" stroke="black" points="492.05,-272.5 502.05,-269 492.05,-265.5 492.05,-272.5"/>
</g>
<!-- load_data&#45;&gt;alu_op -->
<g id="edge10" class="edge">
<title>load_data&#45;&gt;alu_op</title>
<path fill="none" stroke="black" d="M602,-259.36C633.25,-252.61 674.88,-243.62 706.31,-236.82"/>
<polygon fill="black" stroke="black" points="707.1,-240.23 716.13,-234.7 705.62,-233.39 707.1,-240.23"/>
</g>
<!-- cmp -->
<g id="node12" class="node">
<title>cmp</title>
<ellipse fill="none" stroke="black" cx="752.76" cy="-281" rx="30.59" ry="18"/>
<text text-anchor="middle" x="752.76" y="-277.3" font-family="Times-Roman" font-size="14.00">cmp</text>
</g>
<!-- load_data&#45;&gt;cmp -->
<g id="edge13" class="edge">
<title>load_data&#45;&gt;cmp</title>
<path fill="none" stroke="black" d="M609.5,-272.22C641.64,-274.2 682.24,-276.71 711.84,-278.53"/>
<polygon fill="black" stroke="black" points="712.01,-282.05 722.2,-279.18 712.44,-275.07 712.01,-282.05"/>
<text text-anchor="middle" x="678.96" y="-280.8" font-family="Times-Roman" font-size="14.00">cmp</text>
</g>
<!-- write_flags -->
<g id="node10" class="node">
<title>write_flags</title>
<ellipse fill="none" stroke="black" cx="889.85" cy="-253" rx="59.59" ry="18"/>
<text text-anchor="middle" x="889.85" y="-249.3" font-family="Times-Roman" font-size="14.00">write_flags</text>
</g>
<!-- alu_op&#45;&gt;write_flags -->
<g id="edge9" class="edge">
<title>alu_op&#45;&gt;write_flags</title>
<path fill="none" stroke="black" d="M789.96,-233.97C801.98,-236.28 815.7,-238.92 829.02,-241.48"/>
<polygon fill="black" stroke="black" points="828.61,-244.97 839.09,-243.42 829.93,-238.1 828.61,-244.97"/>
</g>
<!-- calc_jump_dest&#45;&gt;write_pc -->
<g id="edge4" class="edge">
<title>calc_jump_dest&#45;&gt;write_pc</title>
<path fill="none" stroke="black" d="M337.73,-169.17C387.62,-163.63 453.59,-156.31 499.78,-151.18"/>
<polygon fill="black" stroke="black" points="500.35,-154.64 509.9,-150.05 499.58,-147.68 500.35,-154.64"/>
</g>
<!-- swap_store_temp -->
<g id="node9" class="node">
<title>swap_store_temp</title>
<ellipse fill="none" stroke="black" cx="556.42" cy="-72" rx="89.08" ry="18"/>
<text text-anchor="middle" x="556.42" y="-68.3" font-family="Times-Roman" font-size="14.00">swap_store_temp</text>
</g>
<!-- swap_load_temp&#45;&gt;swap_store_temp -->
<g id="edge8" class="edge">
<title>swap_load_temp&#45;&gt;swap_store_temp</title>
<path fill="none" stroke="black" d="M351.75,-72C384.78,-72 422.88,-72 457.12,-72"/>
<polygon fill="black" stroke="black" points="457.15,-75.5 467.15,-72 457.15,-68.5 457.15,-75.5"/>
</g>
<!-- cmp&#45;&gt;write_flags -->
<g id="edge14" class="edge">
<title>cmp&#45;&gt;write_flags</title>
<path fill="none" stroke="black" d="M781.75,-275.2C795.83,-272.28 813.46,-268.63 830.32,-265.13"/>
<polygon fill="black" stroke="black" points="831.05,-268.55 840.13,-263.1 829.63,-261.7 831.05,-268.55"/>
</g>
</g>
</svg>
